<?xml version="1.0" standalone="no"?>
<!DOCTYPE svg PUBLIC "-//W3C//DTD SVG 20010904//EN"
 "http://www.w3.org/TR/2001/REC-SVG-20010904/DTD/svg10.dtd">
<svg version="1.0" xmlns="http://www.w3.org/2000/svg"
 width="491.000000pt" height="491.000000pt" viewBox="0 0 491.000000 491.000000"
 preserveAspectRatio="xMidYMid meet">
<metadata>
Created by potrace 1.11, written by Peter Selinger 2001-2013
</metadata>
<g transform="translate(0.000000,491.000000) scale(0.100000,-0.100000)"
fill="#000000" stroke="none">
<path d="M2656 4300 l-26 -32 0 -234 0 -234 -54 0 c-30 0 -58 -5 -61 -10 -5
-8 -11 -8 -19 -1 -7 6 -16 8 -19 4 -4 -3 -24 -7 -45 -8 -65 -4 -207 -27 -216
-36 -5 -4 -17 -4 -28 2 -10 5 -18 6 -18 1 0 -5 -27 -15 -60 -22 -33 -7 -60
-17 -60 -22 0 -5 -9 -4 -20 2 -11 6 -20 7 -20 2 0 -13 -43 -23 -53 -13 -5 5
-10 15 -11 22 -3 14 -10 35 -25 74 -5 11 -9 22 -9 25 0 3 -7 18 -16 34 -8 16
-13 33 -10 38 3 4 0 8 -6 8 -6 0 -8 5 -5 10 3 6 0 12 -7 15 -7 3 -14 17 -15
31 0 15 -6 36 -11 48 -6 11 -20 46 -32 77 -23 61 -54 97 -88 104 -12 2 -27 7
-32 10 -6 3 -10 1 -10 -5 0 -7 -6 -8 -16 -2 -23 13 -71 -13 -95 -52 -18 -30
-27 -115 -12 -129 3 -4 14 -28 23 -54 10 -27 23 -61 30 -78 7 -16 14 -35 15
-40 3 -14 44 -115 55 -136 5 -9 12 -33 15 -52 8 -40 23 -29 -160 -110 -44 -19
-106 -46 -137 -61 -31 -14 -61 -26 -67 -26 -5 0 -11 -5 -13 -11 -2 -5 -10 -11
-19 -12 -43 -7 -103 -80 -82 -101 8 -8 8 -156 0 -156 -4 0 -3 -8 2 -18 6 -12
6 -23 1 -28 -5 -5 -6 -14 -2 -20 5 -7 51 13 132 57 69 37 132 71 140 75 8 3
33 15 56 25 22 11 45 19 51 19 6 0 16 7 23 15 6 8 15 14 18 13 11 -3 85 24
108 39 11 7 24 10 27 6 4 -3 7 -1 7 6 0 7 5 9 10 6 6 -3 10 -2 10 3 0 5 6 9
13 9 6 0 59 16 117 36 58 20 119 38 135 41 17 3 54 12 84 21 30 8 58 12 63 9
4 -3 8 -1 8 3 0 5 12 10 26 11 15 1 33 7 40 12 8 8 14 8 19 0 4 -7 11 -8 18
-1 7 5 39 12 72 16 33 4 70 11 82 16 13 5 25 4 28 -1 4 -6 14 -6 26 1 11 6 27
8 34 5 8 -3 17 -1 20 4 4 6 13 7 24 1 9 -5 23 -6 31 -1 21 13 300 13 300 0 0
-7 6 -8 18 -1 13 7 22 7 29 0 7 -7 13 -7 17 -1 4 6 20 7 43 2 21 -5 76 -14
123 -20 90 -12 125 -17 125 -20 0 -1 11 -3 25 -6 35 -5 105 -23 167 -41 29 -8
57 -12 63 -8 5 3 10 1 10 -4 0 -6 11 -11 24 -11 14 0 28 -4 31 -10 3 -5 12
-10 20 -10 8 0 26 -5 42 -12 15 -6 31 -11 36 -10 4 1 7 -2 7 -6 0 -4 10 -8 22
-9 11 -1 25 -8 29 -15 5 -7 9 -10 9 -6 0 6 89 -29 133 -53 10 -5 22 -7 27 -4
6 4 10 3 10 -2 0 -4 40 -28 88 -53 48 -25 91 -51 95 -57 4 -7 15 -13 22 -13 8
0 15 -5 15 -12 0 -6 3 -8 6 -5 4 4 20 -3 35 -14 16 -11 29 -18 29 -14 0 3 10
-3 22 -15 12 -11 28 -20 35 -20 7 0 13 -6 13 -13 0 -6 12 -18 28 -24 15 -7 39
-24 55 -38 15 -14 27 -23 27 -19 0 4 9 -3 20 -16 11 -13 20 -20 20 -17 0 3 11
-5 25 -19 23 -23 32 -25 95 -23 39 1 73 -1 76 -4 10 -9 61 20 68 38 3 9 6 37
6 61 0 39 -6 51 -42 90 -23 24 -46 44 -52 44 -6 0 -17 9 -24 20 -7 11 -19 20
-28 20 -12 0 -15 6 -10 23 3 12 6 28 6 35 0 7 4 11 9 8 11 -7 23 22 15 35 -3
5 -1 9 4 9 8 0 66 78 67 90 0 10 49 85 59 92 6 4 8 8 4 8 -4 0 12 30 36 68 24
37 50 83 58 102 8 19 17 38 19 41 2 3 -2 13 -9 22 -8 9 -11 20 -8 25 3 5 -12
26 -34 46 -35 32 -45 36 -91 36 -49 0 -55 -3 -96 -45 -24 -25 -41 -50 -38 -55
4 -6 1 -10 -4 -10 -6 0 -11 -7 -11 -15 0 -8 -5 -15 -11 -15 -5 0 -7 -4 -4 -10
3 -5 1 -10 -5 -10 -6 0 -15 -12 -20 -26 -6 -14 -24 -45 -40 -69 -17 -24 -30
-48 -30 -54 0 -5 -7 -14 -16 -19 -9 -5 -15 -12 -15 -15 2 -10 -59 -116 -70
-123 -9 -5 -90 37 -123 65 -10 9 -20 15 -22 13 -2 -1 -28 10 -57 25 -28 15
-55 26 -59 25 -5 -1 -8 3 -8 8 0 6 -7 10 -15 10 -9 0 -41 13 -73 29 -31 15
-85 39 -119 51 -69 25 -74 34 -49 95 8 19 13 35 11 35 -3 0 0 12 6 28 6 15 13
34 15 42 2 8 18 60 36 115 41 127 46 211 15 247 -26 30 -87 63 -87 48 0 -8 -6
-8 -20 0 -14 8 -20 8 -20 0 0 -6 -5 -8 -10 -5 -19 12 -87 -68 -100 -115 -6
-25 -14 -52 -17 -60 -3 -8 -5 -18 -5 -22 1 -5 -2 -8 -8 -8 -5 0 -8 -10 -6 -22
2 -13 -5 -42 -15 -66 -10 -23 -18 -45 -18 -47 1 -15 -15 -72 -23 -82 -6 -7 -8
-20 -4 -28 3 -8 1 -15 -4 -15 -6 0 -10 -7 -10 -15 0 -18 1 -18 -69 -1 -31 8
-69 17 -86 20 -16 2 -30 5 -30 6 0 5 -187 31 -237 33 -27 1 -48 5 -48 9 0 4
-7 5 -15 2 -9 -4 -15 -1 -15 7 0 8 -3 9 -9 3 -6 -5 -43 -7 -83 -4 l-73 5 -5
232 c-5 216 -6 234 -26 260 -20 26 -26 28 -101 31 -79 3 -81 2 -107 -28z"/>
<path d="M2361 3363 c-6 -10 -11 -15 -11 -11 0 4 -11 3 -24 -2 -15 -5 -27 -5
-34 2 -7 7 -17 6 -32 -2 -15 -8 -25 -8 -35 0 -10 8 -17 7 -30 -6 -9 -9 -37
-19 -63 -22 -26 -2 -52 -8 -57 -13 -6 -4 -30 -9 -53 -10 -23 -2 -43 -8 -46
-14 -2 -7 -19 -12 -36 -13 -18 0 -40 -8 -51 -18 -10 -9 -27 -14 -39 -11 -11 3
-18 2 -15 -3 6 -10 -36 -29 -72 -32 -7 -1 -13 -5 -13 -10 0 -4 -11 -8 -24 -8
-13 0 -36 -10 -52 -22 -15 -13 -36 -21 -46 -20 -10 2 -18 -2 -18 -7 0 -6 -8
-11 -19 -11 -10 0 -24 -7 -31 -15 -8 -10 -17 -12 -24 -6 -8 7 -16 4 -24 -10
-7 -10 -19 -19 -27 -19 -15 0 -64 -27 -75 -41 -3 -4 -25 -16 -50 -28 -56 -28
-77 -40 -118 -69 -18 -13 -37 -20 -44 -16 -7 4 -10 4 -6 -1 7 -8 -58 -64 -75
-65 -4 0 -32 -18 -62 -40 -30 -22 -56 -39 -58 -38 -1 2 -17 -12 -35 -30 -18
-18 -32 -30 -32 -26 0 3 -21 -13 -46 -35 -26 -23 -53 -41 -60 -41 -7 0 -22
-12 -33 -26 -12 -15 -21 -24 -21 -22 0 3 -17 -11 -37 -30 -21 -19 -68 -61
-105 -93 -36 -31 -64 -60 -61 -63 4 -3 -1 -6 -9 -6 -18 0 -164 -148 -160 -162
1 -5 -1 -8 -5 -5 -5 2 -16 -4 -25 -15 -10 -10 -16 -18 -13 -18 2 0 -11 -15
-30 -34 -18 -19 -31 -37 -28 -40 4 -3 5 -34 4 -69 l-2 -63 55 -53 c31 -28 56
-55 56 -59 1 -4 19 -20 40 -37 21 -16 39 -35 40 -42 0 -6 4 -13 9 -15 5 -1 54
-46 108 -99 54 -52 112 -104 128 -114 17 -11 34 -25 38 -32 4 -7 15 -13 22
-13 8 0 15 -7 15 -16 0 -8 5 -12 10 -9 6 3 10 -1 10 -9 0 -9 8 -16 18 -16 10
0 24 -9 32 -19 7 -11 17 -18 21 -15 4 2 10 -5 14 -16 3 -11 10 -20 14 -20 5 0
29 -16 55 -35 25 -20 46 -32 46 -28 0 4 5 0 11 -9 5 -10 18 -18 27 -18 10 0
24 -9 32 -20 8 -11 20 -20 27 -20 6 0 16 -6 20 -13 8 -14 27 -25 108 -65 22
-11 51 -32 64 -46 14 -14 32 -26 41 -26 9 0 25 -9 35 -20 10 -11 20 -18 24
-16 3 2 22 -4 41 -15 19 -10 43 -21 53 -25 9 -3 17 -10 17 -14 0 -7 30 -18 69
-26 8 -1 17 -8 21 -15 4 -6 13 -8 19 -5 6 4 11 2 11 -4 0 -6 5 -8 10 -5 6 3
10 1 10 -4 0 -6 8 -11 18 -11 9 0 28 -9 41 -19 13 -10 32 -16 41 -14 9 2 22
-3 29 -11 8 -9 25 -16 40 -16 15 0 32 -5 38 -11 5 -5 24 -11 41 -11 22 -1 34
-7 38 -20 4 -13 9 -16 17 -10 13 11 51 0 62 -17 3 -6 24 -11 47 -11 25 0 49
-8 66 -21 15 -11 28 -16 29 -12 5 13 98 0 116 -16 10 -8 17 -9 22 -1 4 7 12 7
25 0 13 -7 21 -7 25 0 5 8 11 7 21 -1 11 -9 14 -9 14 0 0 8 5 9 19 1 14 -7 22
-7 26 0 5 8 11 7 21 -1 11 -9 14 -9 14 0 0 8 5 9 19 1 14 -7 22 -7 26 0 5 8
11 7 21 -1 11 -9 14 -9 14 0 0 8 5 9 19 1 14 -7 22 -7 26 0 5 8 11 7 21 -1 11
-9 14 -9 14 0 0 8 5 9 19 1 14 -7 22 -7 26 0 5 8 11 7 21 -1 11 -9 14 -9 14 0
0 8 5 9 19 1 14 -7 22 -7 26 0 5 8 11 7 21 -1 11 -9 14 -9 14 0 0 8 5 9 19 1
14 -7 22 -7 26 0 4 6 12 7 18 3 18 -11 36 -12 43 -2 3 5 10 7 15 3 5 -3 16 0
24 6 8 6 19 9 25 5 5 -3 10 -3 10 2 0 4 22 7 49 6 34 -1 51 3 55 13 3 9 20 14
46 14 22 0 51 6 63 14 12 8 37 17 54 19 18 3 39 12 48 20 8 8 23 13 34 10 10
-3 22 0 25 6 4 6 20 11 35 11 15 0 36 9 46 20 13 14 22 17 29 10 7 -7 26 7 63
47 29 32 53 61 53 66 0 4 5 5 10 2 6 -3 10 -1 10 4 0 6 19 11 43 11 34 0 48
-6 65 -25 12 -14 31 -25 42 -25 11 0 20 -4 20 -9 0 -5 15 -19 33 -30 18 -11
46 -31 62 -45 17 -14 35 -26 42 -26 6 0 21 -12 32 -26 13 -16 27 -24 36 -20 8
3 15 1 15 -3 0 -5 27 -29 60 -53 39 -29 61 -52 65 -71 l7 -27 104 0 104 0 0
25 c0 14 5 25 12 25 6 0 9 3 5 6 -3 3 9 22 26 41 18 19 37 44 44 56 7 12 13
18 13 12 1 -5 5 -1 9 10 5 11 4 25 -1 32 -6 7 -5 14 2 18 7 4 -7 25 -38 56
-27 27 -47 49 -43 49 8 0 -59 39 -79 46 -9 3 -24 18 -35 34 -10 15 -24 26 -29
24 -6 -2 -37 18 -68 45 l-57 49 35 41 c20 22 43 41 51 41 9 0 13 3 10 6 -4 4
22 28 56 54 34 26 68 54 76 63 7 10 18 17 23 17 16 0 78 46 71 53 -3 4 -1 7 5
7 8 0 167 137 240 207 7 7 17 13 22 13 5 0 12 9 15 21 4 11 9 19 11 16 3 -2
41 33 86 79 45 46 90 84 100 84 16 0 18 11 18 125 0 98 -3 125 -13 125 -8 0
-25 12 -39 28 -75 79 -248 245 -248 236 -1 -5 -7 2 -15 16 -8 14 -14 22 -15
18 0 -3 -18 9 -39 29 -22 19 -43 36 -47 36 -4 1 -28 23 -52 50 -25 26 -50 47
-56 47 -6 0 -29 18 -51 40 -22 21 -45 39 -51 40 -6 0 -29 16 -51 35 -23 19
-46 35 -52 35 -6 0 -11 4 -11 9 0 5 -8 12 -17 15 -33 12 -63 33 -56 39 3 4 -1
7 -10 7 -9 0 -17 4 -17 8 0 5 -21 20 -47 33 -27 13 -51 28 -55 34 -5 7 -8 7
-8 0 0 -7 -3 -7 -8 0 -8 12 -35 28 -82 52 -19 9 -46 25 -59 35 -13 10 -27 16
-31 13 -4 -3 -10 2 -14 10 -3 8 -14 15 -26 15 -11 0 -25 9 -32 19 -6 10 -17
17 -23 14 -7 -2 -19 2 -26 10 -8 7 -19 12 -26 10 -13 -5 -88 32 -98 47 -4 6
-10 8 -15 5 -5 -3 -11 -1 -15 5 -4 6 -10 8 -15 5 -5 -3 -11 -1 -15 5 -3 5 -16
10 -27 10 -12 0 -29 6 -37 14 -9 8 -29 16 -46 18 -16 1 -38 12 -47 23 -10 11
-17 15 -18 8 0 -14 -35 -5 -51 13 -7 8 -30 14 -55 14 -23 0 -46 5 -49 10 -3 6
-24 10 -47 10 -24 0 -51 8 -69 21 -16 11 -29 15 -29 9 0 -8 -6 -8 -20 0 -15 8
-20 8 -20 -1 0 -9 -3 -9 -14 0 -10 8 -16 9 -21 1 -4 -7 -12 -7 -24 0 -10 5
-21 7 -23 4 -3 -2 -11 2 -18 11 -10 13 -49 15 -251 15 -216 0 -239 -2 -248
-17z"/>
</g>
</svg>
